<?xml version="1.0" encoding="UTF-8"?>
<svg xmlns="http://www.w3.org/2000/svg" style="display: none;">
    <!-- tema -->
    <symbol id="sol" viewBox="0 -960 960 960" fill="currentColor"><path d="M480-360q50 0 85-35t35-85q0-50-35-85t-85-35q-50 0-85 35t-35 85q0 50 35 85t85 35Zm0 80q-83 0-141.5-58.5T280-480q0-83 58.5-141.5T480-680q83 0 141.5 58.5T680-480q0 83-58.5 141.5T480-280ZM200-440H40v-80h160v80Zm720 0H760v-80h160v80ZM440-760v-160h80v160h-80Zm0 720v-160h80v160h-80ZM256-650l-101-97 57-59 96 100-52 56Zm492 496-97-101 53-55 101 97-57 59Zm-98-550 97-101 59 57-100 96-56-52ZM154-212l101-97 55 53-97 101-59-57Zm326-268Z"/></symbol>
    <symbol id="luna" viewBox="0 -960 960 960" fill="currentColor"><path d="M480-120q-150 0-255-105T120-480q0-150 105-255t255-105q14 0 27.5 1t26.5 3q-41 29-65.5 75.5T444-660q0 90 63 153t153 63q55 0 101-24.5t75-65.5q2 13 3 26.5t1 27.5q0 150-105 255T480-120Zm0-80q88 0 158-48.5T740-375q-20 5-40 8t-40 3q-123 0-209.5-86.5T364-660q0-20 3-40t8-40q-78 32-126.5 102T200-480q0 116 82 198t198 82Zm-10-270Z"/></symbol>

    <!-- subir -->
    <symbol id="flecha-arriba" viewBox="0 -960 960 960" fill="currentColor"><path d="M480-528 296-344l-56-56 240-240 240 240-56 56-184-184Z"/></symbol>

    <symbol id="verificar" viewBox="0 -960 960 960" fill="currentColor"><path d="M400-304 240-464l56-56 104 104 264-264 56 56-320 320Z"/></symbol>

    <symbol id="github" viewBox="0 0 98 98"><path fill-rule="evenodd" clip-rule="evenodd" d="M48.854 0C21.839 0 0 22 0 49.217c0 21.756 13.993 40.172 33.405 46.69 2.427.49 3.316-1.059 3.316-2.362 0-1.141-.08-5.052-.08-9.127-13.59 2.934-16.42-5.867-16.42-5.867-2.184-5.704-5.42-7.17-5.42-7.17-4.448-3.015.324-3.015.324-3.015 4.934.326 7.523 5.052 7.523 5.052 4.367 7.496 11.404 5.378 14.235 4.074.404-3.178 1.699-5.378 3.074-6.6-10.839-1.141-22.243-5.378-22.243-24.283 0-5.378 1.94-9.778 5.014-13.2-.485-1.222-2.184-6.275.486-13.038 0 0 4.125-1.304 13.426 5.052a46.97 46.97 0 0 1 12.214-1.63c4.125 0 8.33.571 12.213 1.63 9.302-6.356 13.427-5.052 13.427-5.052 2.67 6.763.97 11.816.485 13.038 3.155 3.422 5.015 7.822 5.015 13.2 0 18.905-11.404 23.06-22.324 24.283 1.78 1.548 3.316 4.481 3.316 9.126 0 6.6-.08 11.897-.08 13.526 0 1.304.89 2.853 3.316 2.364 19.412-6.52 33.405-24.935 33.405-46.691C97.707 22 75.788 0 48.854 0z" /></symbol>
    <symbol id="cv"  viewBox="0 -960 960 960" fill="currentColor"><path d="M200-120q-33 0-56.5-23.5T120-200v-560q0-33 23.5-56.5T200-840h168q14-36 44-58t68-22q38 0 68 22t44 58h168q33 0 56.5 23.5T840-760v560q0 33-23.5 56.5T760-120H200Zm280-670q13 0 21.5-8.5T510-820q0-13-8.5-21.5T480-850q-13 0-21.5 8.5T450-820q0 13 8.5 21.5T480-790ZM200-246q54-53 125.5-83.5T480-360q83 0 154.5 30.5T760-246v-514H200v514Zm280-194q58 0 99-41t41-99q0-58-41-99t-99-41q-58 0-99 41t-41 99q0 58 41 99t99 41ZM280-200h400v-10q-42-35-93-52.5T480-280q-56 0-107 17.5T280-210v10Zm200-320q-25 0-42.5-17.5T420-580q0-25 17.5-42.5T480-640q25 0 42.5 17.5T540-580q0 25-17.5 42.5T480-520Zm0 17Z"/></symbol>
    <symbol id="correo" viewBox="0 -960 960 960" fill="currentColor"><path d="M560-520h280v-200H560v200Zm140-50-100-70v-40l100 70 100-70v40l-100 70ZM80-120q-33 0-56.5-23.5T0-200v-560q0-33 23.5-56.5T80-840h800q33 0 56.5 23.5T960-760v560q0 33-23.5 56.5T880-120H80Zm556-80h244v-560H80v560h4q42-75 116-117.5T360-360q86 0 160 42.5T636-200ZM360-400q50 0 85-35t35-85q0-50-35-85t-85-35q-50 0-85 35t-35 85q0 50 35 85t85 35ZM182-200h356q-34-38-80.5-59T360-280q-51 0-97 21t-81 59Zm178-280q-17 0-28.5-11.5T320-520q0-17 11.5-28.5T360-560q17 0 28.5 11.5T400-520q0 17-11.5 28.5T360-480Zm120 0Z"/></symbol>
    
    <!-- Sobre mi -->
    <symbol id="sobre-mi" viewBox="0 -960 960 960" fill="currentColor"><path d="M160-80q-33 0-56.5-23.5T80-160v-440q0-33 23.5-56.5T160-680h200v-120q0-33 23.5-56.5T440-880h80q33 0 56.5 23.5T600-800v120h200q33 0 56.5 23.5T880-600v440q0 33-23.5 56.5T800-80H160Zm0-80h640v-440H600q0 33-23.5 56.5T520-520h-80q-33 0-56.5-23.5T360-600H160v440Zm80-80h240v-18q0-17-9.5-31.5T444-312q-20-9-40.5-13.5T360-330q-23 0-43.5 4.5T276-312q-17 8-26.5 22.5T240-258v18Zm320-60h160v-60H560v60Zm-200-60q25 0 42.5-17.5T420-420q0-25-17.5-42.5T360-480q-25 0-42.5 17.5T300-420q0 25 17.5 42.5T360-360Zm200-60h160v-60H560v60ZM440-600h80v-200h-80v200Zm40 220Z"/></symbol>

    <!-- Computadora -->
    <symbol id="pc" viewBox="0 -960 960 960" fill="currentColor"><path d="M40-120v-80h880v80H40Zm120-120q-33 0-56.5-23.5T80-320v-440q0-33 23.5-56.5T160-840h640q33 0 56.5 23.5T880-760v440q0 33-23.5 56.5T800-240H160Zm0-80h640v-440H160v440Zm0 0v-440 440Z"/></symbol>

    <!-- Foco -->
    <symbol id="foco" viewBox="0 -960 960 960" fill="currentColor"><path d="M480-80q-33 0-56.5-23.5T400-160h160q0 33-23.5 56.5T480-80ZM320-200v-80h320v80H320Zm10-120q-69-41-109.5-110T180-580q0-125 87.5-212.5T480-880q125 0 212.5 87.5T780-580q0 81-40.5 150T630-320H330Zm24-80h252q45-32 69.5-79T700-580q0-92-64-156t-156-64q-92 0-156 64t-64 156q0 54 24.5 101t69.5 79Zm126 0Z"/></symbol>
    <!-- Control -->
    <symbol id="control" viewBox="0 -960 960 960" fill="currentColor"><path d="M189-160q-60 0-102.5-43T42-307q0-9 1-18t3-18l84-336q14-54 57-87.5t98-33.5h390q55 0 98 33.5t57 87.5l84 336q2 9 3.5 18.5T919-306q0 61-43.5 103.5T771-160q-42 0-78-22t-54-60l-28-58q-5-10-15-15t-21-5H385q-11 0-21 5t-15 15l-28 58q-18 38-54 60t-78 22Zm3-80q19 0 34.5-10t23.5-27l28-57q15-31 44-48.5t63-17.5h190q34 0 63 18t45 48l28 57q8 17 23.5 27t34.5 10q28 0 48-18.5t21-46.5q0 1-2-19l-84-335q-7-27-28-44t-49-17H285q-28 0-49.5 17T208-659l-84 335q-2 6-2 18 0 28 20.5 47t49.5 19Zm348-280q17 0 28.5-11.5T580-560q0-17-11.5-28.5T540-600q-17 0-28.5 11.5T500-560q0 17 11.5 28.5T540-520Zm80-80q17 0 28.5-11.5T660-640q0-17-11.5-28.5T620-680q-17 0-28.5 11.5T580-640q0 17 11.5 28.5T620-600Zm0 160q17 0 28.5-11.5T660-480q0-17-11.5-28.5T620-520q-17 0-28.5 11.5T580-480q0 17 11.5 28.5T620-440Zm80-80q17 0 28.5-11.5T740-560q0-17-11.5-28.5T700-600q-17 0-28.5 11.5T660-560q0 17 11.5 28.5T700-520Zm-360 60q13 0 21.5-8.5T370-490v-40h40q13 0 21.5-8.5T440-560q0-13-8.5-21.5T410-590h-40v-40q0-13-8.5-21.5T340-660q-13 0-21.5 8.5T310-630v40h-40q-13 0-21.5 8.5T240-560q0 13 8.5 21.5T270-530h40v40q0 13 8.5 21.5T340-460Zm140-20Z"/></symbol>

    <!-- Egreso -->
    <symbol id="egreso" viewBox="0 -960 960 960" fill="currentColor"><path d="M480-120 200-272v-240L40-600l440-240 440 240v320h-80v-276l-80 44v240L480-120Zm0-332 274-148-274-148-274 148 274 148Zm0 241 200-108v-151L480-360 280-470v151l200 108Zm0-241Zm0 90Zm0 0Z"/></symbol>
    <!-- Rompecabezas -->
    <symbol id="rompecabezas" viewBox="0 -960 960 960" fill="currentColor"><path d="M352-120H200q-33 0-56.5-23.5T120-200v-152q48 0 84-30.5t36-77.5q0-47-36-77.5T120-568v-152q0-33 23.5-56.5T200-800h160q0-42 29-71t71-29q42 0 71 29t29 71h160q33 0 56.5 23.5T800-720v160q42 0 71 29t29 71q0 42-29 71t-71 29v160q0 33-23.5 56.5T720-120H568q0-50-31.5-85T460-240q-45 0-76.5 35T352-120Zm-152-80h85q24-66 77-93t98-27q45 0 98 27t77 93h85v-240h80q8 0 14-6t6-14q0-8-6-14t-14-6h-80v-240H480v-80q0-8-6-14t-14-6q-8 0-14 6t-6 14v80H200v88q54 20 87 67t33 105q0 57-33 104t-87 68v88Zm260-260Z"/></symbol>


    <!-- HTML5 -->
    <symbol id="html5" viewBox="0 0 512 512">
        <title>HTML5</title>
        <path fill="currentColor" d="M71,460 L30,0 481,0 440,460 255,512"/>
        <path fill="currentColor" d="M256,472 L405,431 440,37 256,37"/>
        <path fill="var(--logo-icon, #000)" d="M256,208 L181,208 176,150 256,150 256,94 255,94 114,94 115,109 129,265 256,265zM256,355 L255,355 192,338 188,293 158,293 132,293 139,382 255,414 256,414z"/>
        <path fill="var(--logo-icon, #000)" d="M255,208 L255,265 325,265 318,338 255,355 255,414 371,382 372,372 385,223 387,208 371,208zM255,94 L255,129 255,150 255,150 392,150 392,150 392,150 393,138 396,109 397,94z"/>
    </symbol>

    <!-- CSS3 -->
    <symbol id="css3" viewBox="0 0 32 32">
        <g id="SVGRepo_bgCarrier" stroke-width="0"></g>
        <g id="SVGRepo_tracerCarrier" stroke-linecap="round" stroke-linejoin="round"></g>
        <g id="SVGRepo_iconCarrier">
        <title>CSS3</title>
        <polygon points="5.902 27.201 3.656 2 28.344 2 26.095 27.197 15.985 30 5.902 27.201" fill="currentColor"></polygon>
        <polygon points="16 27.858 24.17 25.593 26.092 4.061 16 4.061 16 27.858" fill="currentColor"></polygon>
        <polygon points="16 13.191 20.09 13.191 20.372 10.026 16 10.026 16 6.935 16.011 6.935 23.75 6.935 23.676 7.764 22.917 16.282 16 16.282 16 13.191" fill="var(--logo-icon, #000)"></polygon>
        <polygon points="16.019 21.218 16.005 21.222 12.563 20.292 12.343 17.827 10.67 17.827 9.24 17.827 9.673 22.68 16.004 24.438 16.019 24.434 16.019 21.218" fill="var(--logo-icon, #000)"></polygon>
        <polygon points="19.827 16.151 19.455 20.29 16.008 21.22 16.008 24.436 22.344 22.68 22.391 22.158 22.928 16.151 19.827 16.151" fill="var(--logo-icon, #000)"></polygon>
        <polygon points="16.011 6.935 16.011 8.855 16.011 10.018 16.011 10.026 8.555 10.026 8.555 10.026 8.545 10.026 8.483 9.331 8.342 7.764 8.268 6.935 16.011 6.935" fill="var(--logo-icon, #000)"></polygon>
        <polygon points="16 13.191 16 15.111 16 16.274 16 16.282 12.611 16.282 12.611 16.282 12.601 16.282 12.539 15.587 12.399 14.02 12.325 13.191 16 13.191" fill="var(--logo-icon, #000)"></polygon>
        </g>
    </symbol>
    <!-- JS -->
    <symbol id="js" viewBox="0 0 32 32" fill="var(--logo-icon, #000)">
        <g id="SVGRepo_bgCarrier" stroke-width="0"></g>
        <g id="SVGRepo_tracerCarrier" stroke-linecap="round" stroke-linejoin="round"></g>
        <g id="SVGRepo_iconCarrier">
        <title>file_type_js_official</title>
        <rect x="2" y="2" width="28" height="28" fill="currentColor"></rect>
            <path d="M20.809,23.875a2.866,2.866,0,0,0,2.6,1.6c1.09,0,1.787-.545,1.787-1.3,0-.9-.716-1.222-1.916-1.747l-.658-.282c-1.9-.809-3.16-1.822-3.16-3.964,0-1.973,1.5-3.476,3.853-3.476a3.889,3.889,0,0,1,3.742,2.107L25,18.128A1.789,1.789,0,0,0,23.311,17a1.145,1.145,0,0,0-1.259,1.128c0,.789.489,1.109,1.618,1.6l.658.282c2.236.959,3.5,1.936,3.5,4.133,0,2.369-1.861,3.667-4.36,3.667a5.055,5.055,0,0,1-4.795-2.691Zm-9.295.228c.413.733.789,1.353,1.693,1.353.864,0,1.41-.338,1.41-1.653V14.856h2.631v8.982c0,2.724-1.6,3.964-3.929,3.964a4.085,4.085,0,0,1-3.947-2.4Z"></path>
        </g>
    </symbol>

    <!-- React -->
    <symbol id="react" viewBox="-11.5 -10.23174 23 20.46348">
        <circle cx="0" cy="0" r="2.05" fill="currentColor"/>
        <g stroke="currentColor" stroke-width="1" fill="none">
            <ellipse rx="11" ry="4.2"/>
            <ellipse rx="11" ry="4.2" transform="rotate(60)"/>
            <ellipse rx="11" ry="4.2" transform="rotate(120)"/>
        </g>
    </symbol>
    <!-- Tailwind -->
    <symbol id="tailwindcss" viewBox="0 0 24 24">
    <path fill="currentColor" d="M12.001 4.8c-3.2 0-5.2 1.6-6 4.8 1.2-1.6 2.6-2.2 4.2-1.8 1.144.285 1.963 1.116 2.868 2.035C14.537 11.332 15.932 12.75 19.2 12.75c3.2 0 5.2-1.6 6-4.8-1.2 1.6-2.6 2.2-4.2 1.8-1.143-.284-1.963-1.116-2.869-2.036-1.467-1.492-2.862-2.914-6.13-2.914zM6 12.75c-3.2 0-5.2 1.6-6 4.8 1.2-1.6 2.6-2.2 4.2-1.8 1.144.285 1.962 1.115 2.868 2.035 1.467 1.492 2.862 2.914 6.131 2.914 3.2 0 5.2-1.6 6-4.8-1.2 1.6-2.6 2.2-4.2 1.8-1.144-.285-1.963-1.116-2.869-2.036-1.467-1.492-2.862-2.914-6.13-2.914z"/>
    </symbol>

    <!-- Strapi -->
    <symbol id="strapi" viewBox="0 0 64 64">
    <path d="M0 22.1867C0 11.7278 0 6.49832 3.24916 3.24916C6.49832 0 11.7278 0 22.1867 0H41.8133C52.2722 0 57.5017 0 60.7508 3.24916C64 6.49832 64 11.7278 64 22.1867V41.8133C64 52.2722 64 57.5017 60.7508 60.7508C57.5017 64 52.2722 64 41.8133 64H22.1867C11.7278 64 6.49832 64 3.24916 60.7508C0 57.5017 0 52.2722 0 41.8133V22.1867Z" fill="currentColor"/>
    <path fill-rule="evenodd" clip-rule="evenodd" d="M44.156 19.4131H22.6094V30.4004H33.596V41.3864H44.5827V19.8398C44.5827 19.6041 44.3917 19.4131 44.156 19.4131Z" fill="var(--logo-icon, #000)"/>
    <rect x="33.1719" y="30.4004" width="0.426667" height="0.426667" fill="var(--logo-icon, #000)"/>
    <path d="M22.6172 30.4004H33.1772C33.4128 30.4004 33.6039 30.5914 33.6039 30.8271V41.3871H23.0439C22.8082 41.3871 22.6172 41.196 22.6172 40.9604V30.4004Z" fill="var(--logo-icon, #000)"/>
    <path d="M33.6016 41.3867H44.5882L33.9657 52.0092C33.8314 52.1436 33.6016 52.0484 33.6016 51.8584V41.3867Z" fill="var(--logo-icon, #000)"/>
    <path d="M22.6151 30.3998H12.1434C11.9534 30.3998 11.8582 30.17 11.9926 30.0356L22.6151 19.4131V30.3998Z" fill="var(--logo-icon, #000)"/>
    </symbol>

    <!-- PostgreSQL -->
    <symbol id="postgresql" viewBox="0 0 432.071 445.383" xml:space="preserve">
    <g id="orginal" style="fill-rule:nonzero;clip-rule:nonzero;stroke:#000000;stroke-miterlimit:4;">
        </g>
    <g id="Layer_x0020_3" style="fill-rule:nonzero;clip-rule:nonzero;fill:none;stroke-width:12.4651;stroke-linecap:round;stroke-linejoin:round;stroke-miterlimit:4;" stroke="var(--logo-icon, #000)">
    <path style="fill:#000000;stroke:#000000;stroke-width:37.3953;stroke-linecap:butt;stroke-linejoin:miter;" d="M323.205,324.227c2.833-23.601,1.984-27.062,19.563-23.239l4.463,0.392c13.517,0.615,31.199-2.174,41.587-7c22.362-10.376,35.622-27.7,13.572-23.148c-50.297,10.376-53.755-6.655-53.755-6.655c53.111-78.803,75.313-178.836,56.149-203.322    C352.514-5.534,262.036,26.049,260.522,26.869l-0.482,0.089c-9.938-2.062-21.06-3.294-33.554-3.496c-22.761-0.374-40.032,5.967-53.133,15.904c0,0-161.408-66.498-153.899,83.628c1.597,31.936,45.777,241.655,98.47,178.31    c19.259-23.163,37.871-42.748,37.871-42.748c9.242,6.14,20.307,9.272,31.912,8.147l0.897-0.765c-0.281,2.876-0.157,5.689,0.359,9.019c-13.572,15.167-9.584,17.83-36.723,23.416c-27.457,5.659-11.326,15.734-0.797,18.367c12.768,3.193,42.305,7.716,62.268-20.224    l-0.795,3.188c5.325,4.26,4.965,30.619,5.72,49.452c0.756,18.834,2.017,36.409,5.856,46.771c3.839,10.36,8.369,37.05,44.036,29.406c29.809-6.388,52.6-15.582,54.677-101.107"/>
    <path style="stroke:none;" fill="currentColor" d="M402.395,271.23c-50.302,10.376-53.76-6.655-53.76-6.655c53.111-78.808,75.313-178.843,56.153-203.326c-52.27-66.785-142.752-35.2-144.262-34.38l-0.486,0.087c-9.938-2.063-21.06-3.292-33.56-3.496c-22.761-0.373-40.026,5.967-53.127,15.902    c0,0-161.411-66.495-153.904,83.63c1.597,31.938,45.776,241.657,98.471,178.312c19.26-23.163,37.869-42.748,37.869-42.748c9.243,6.14,20.308,9.272,31.908,8.147l0.901-0.765c-0.28,2.876-0.152,5.689,0.361,9.019c-13.575,15.167-9.586,17.83-36.723,23.416    c-27.459,5.659-11.328,15.734-0.796,18.367c12.768,3.193,42.307,7.716,62.266-20.224l-0.796,3.188c5.319,4.26,9.054,27.711,8.428,48.969c-0.626,21.259-1.044,35.854,3.147,47.254c4.191,11.4,8.368,37.05,44.042,29.406c29.809-6.388,45.256-22.942,47.405-50.555    c1.525-19.631,4.976-16.729,5.194-34.28l2.768-8.309c3.192-26.611,0.507-35.196,18.872-31.203l4.463,0.392c13.517,0.615,31.208-2.174,41.591-7c22.358-10.376,35.618-27.7,13.573-23.148z"/>
    <path d="M215.866,286.484c-1.385,49.516,0.348,99.377,5.193,111.495c4.848,12.118,15.223,35.688,50.9,28.045c29.806-6.39,40.651-18.756,45.357-46.051c3.466-20.082,10.148-75.854,11.005-87.281"/>
    <path d="M173.104,38.256c0,0-161.521-66.016-154.012,84.109c1.597,31.938,45.779,241.664,98.473,178.316c19.256-23.166,36.671-41.335,36.671-41.335"/>
    <path d="M260.349,26.207c-5.591,1.753,89.848-34.889,144.087,34.417c19.159,24.484-3.043,124.519-56.153,203.329"/>
    <path style="stroke-linejoin:bevel;" d="M348.282,263.953c0,0,3.461,17.036,53.764,6.653c22.04-4.552,8.776,12.774-13.577,23.155c-18.345,8.514-59.474,10.696-60.146-1.069c-1.729-30.355,21.647-21.133,19.96-28.739c-1.525-6.85-11.979-13.573-18.894-30.338    c-6.037-14.633-82.796-126.849,21.287-110.183c3.813-0.789-27.146-99.002-124.553-100.599c-97.385-1.597-94.19,119.762-94.19,119.762"/>
    <path d="M188.604,274.334c-13.577,15.166-9.584,17.829-36.723,23.417c-27.459,5.66-11.326,15.733-0.797,18.365c12.768,3.195,42.307,7.718,62.266-20.229c6.078-8.509-0.036-22.086-8.385-25.547c-4.034-1.671-9.428-3.765-16.361,3.994z"/>
    <path d="M187.715,274.069c-1.368-8.917,2.93-19.528,7.536-31.942c6.922-18.626,22.893-37.255,10.117-96.339c-9.523-44.029-73.396-9.163-73.436-3.193c-0.039,5.968,2.889,30.26-1.067,58.548c-5.162,36.913,23.488,68.132,56.479,64.938"/>
    <path style="fill:#FFFFFF;stroke-width:4.155;stroke-linecap:butt;stroke-linejoin:miter;" d="M172.517,141.7c-0.288,2.039,3.733,7.48,8.976,8.207c5.234,0.73,9.714-3.522,9.998-5.559c0.284-2.039-3.732-4.285-8.977-5.015c-5.237-0.731-9.719,0.333-9.996,2.367z"/>
    <path style="fill:#FFFFFF;stroke-width:2.0775;stroke-linecap:butt;stroke-linejoin:miter;" d="M331.941,137.543c0.284,2.039-3.732,7.48-8.976,8.207c-5.238,0.73-9.718-3.522-10.005-5.559c-0.277-2.039,3.74-4.285,8.979-5.015c5.239-0.73,9.718,0.333,10.002,2.368z"/>
    <path d="M350.676,123.432c0.863,15.994-3.445,26.888-3.988,43.914c-0.804,24.748,11.799,53.074-7.191,81.435"/>
    <path style="stroke-width:3;" d="M0,60.232"/>
    </g>
    </symbol>


</svg>