<svg xmlns="http://www.w3.org/2000/svg" style="display:none">
<!-- Cabecera -->
<!-- Claro -->
  <symbol id="claro" viewBox="0 -960 960 960" fill="#0a00c1">
  <path d="M480-346.67q55.33 0 94.33-39t39-94.33q0-55.33-39-94.33t-94.33-39q-55.33 0-94.33 39t-39 94.33q0 55.33 39 94.33t94.33 39Zm0 66.67q-83 0-141.5-58.5T280-480q0-83 58.5-141.5T480-680q83 0 141.5 58.5T680-480q0 83-58.5 141.5T480-280ZM200-446.67H40v-66.66h160v66.66Zm720 0H760v-66.66h160v66.66ZM446.67-760v-160h66.66v160h-66.66Zm0 720v-160h66.66v160h-66.66ZM260-655.33l-100.33-97 47.66-49 96 100-43.33 46Zm493.33 496-97.66-100.34 45-45.66 99.66 97.66-47 48.34Zm-98.66-541.34 97.66-99.66 49 47L702-656l-47.33-44.67ZM159.33-207.33 259-305l46.33 45.67-97.66 99.66-48.34-47.66ZM480-480Z"/>
  </symbol>
<!-- Oscuro -->
  <symbol id="oscuro" viewBox="0 -960 960 960" fill="#75FBFD">
    <path d="M480-120q-150 0-255-105T120-480q0-150 105-255t255-105q10 0 20.5.67 10.5.66 24.17 2-37.67 31-59.17 77.83T444-660q0 90 63 153t153 63q53 0 99.67-20.5 46.66-20.5 77.66-56.17 1.34 12.34 2 21.84.67 9.5.67 18.83 0 150-105 255T480-120Zm0-66.67q102 0 179.33-61.16Q736.67-309 760.67-395.67q-23.34 9-49.11 13.67-25.78 4.67-51.56 4.67-117.46 0-200.06-82.61-82.61-82.6-82.61-200.06 0-22.67 4.34-47.67 4.33-25 14.66-55-91.33 28.67-150.5 107-59.16 78.34-59.16 175.67 0 122 85.66 207.67Q358-186.67 480-186.67Zm-6-288Z" />
  </symbol>
<!-- Tarjeta -->
  <symbol 
  id="github"  viewBox="0 0 24 24">
    <title>GitHub</title>
    <path d="M12 .297c-6.63 0-12 5.373-12 12 0 5.303 3.438 9.8 8.205 11.385.6.113.82-.258.82-.577 0-.285-.01-1.04-.015-2.04-3.338.724-4.042-1.61-4.042-1.61C4.422 18.07 3.633 17.7 3.633 17.7c-1.087-.744.084-.729.084-.729 1.205.084 1.838 1.236 1.838 1.236 1.07 1.835 2.809 1.305 3.495.998.108-.776.417-1.305.76-1.605-2.665-.3-5.466-1.332-5.466-5.93 0-1.31.465-2.38 1.235-3.22-.135-.303-.54-1.523.105-3.176 0 0 1.005-.322 3.3 1.23.96-.267 1.98-.399 3-.405 1.02.006 2.04.138 3 .405 2.28-1.552 3.285-1.23 3.285-1.23.645 1.653.24 2.873.12 3.176.765.84 1.23 1.91 1.23 3.22 0 4.61-2.805 5.625-5.475 5.92.42.36.81 1.096.81 2.22 0 1.606-.015 2.896-.015 3.286 0 .315.21.69.825.57C20.565 22.092 24 17.592 24 12.297c0-6.627-5.373-12-12-12"/>
  </symbol>
  <symbol id="pdf" viewBox="0 -960 960 960">
    <path d="M360-460h40v-80h40q17 0 28.5-11.5T480-580v-40q0-17-11.5-28.5T440-660h-80v200Zm40-120v-40h40v40h-40Zm120 120h80q17 0 28.5-11.5T640-500v-120q0-17-11.5-28.5T600-660h-80v200Zm40-40v-120h40v120h-40Zm120 40h40v-80h40v-40h-40v-40h40v-40h-80v200ZM320-240q-33 0-56.5-23.5T240-320v-480q0-33 23.5-56.5T320-880h480q33 0 56.5 23.5T880-800v480q0 33-23.5 56.5T800-240H320Zm0-80h480v-480H320v480ZM160-80q-33 0-56.5-23.5T80-160v-560h80v560h560v80H160Zm160-720v480-480Z"/>
  </symbol>
  <symbol id="correo" viewBox="0 -960 960 960">
    <path d="M160-160q-33 0-56.5-23.5T80-240v-480q0-33 23.5-56.5T160-800h640q33 0 56.5 23.5T880-720v480q0 33-23.5 56.5T800-160H160Zm320-280L160-640v400h640v-400L480-440Zm0-80 320-200H160l320 200ZM160-640v-80 480-400Z"/>
  </symbol>
<!-- Habilidades y Conocimientos -->
<!-- HTML5 -->
  <symbol id="html5" viewBox="0 0 512 512">
    <title>HTML5</title>
    <path fill="#E34F26" d="M71,460 L30,0 481,0 440,460 255,512"/>
    <path fill="#EF652A" d="M256,472 L405,431 440,37 256,37"/>
    <path fill="#EBEBEB" d="M256,208 L181,208 176,150 256,150 256,94 255,94 114,94 115,109 129,265 256,265zM256,355 L255,355 192,338 188,293 158,293 132,293 139,382 255,414 256,414z"/>
    <path fill="#FFF" d="M255,208 L255,265 325,265 318,338 255,355 255,414 371,382 372,372 385,223 387,208 371,208zM255,94 L255,129 255,150 255,150 392,150 392,150 392,150 393,138 396,109 397,94z"/>
  </symbol>
<!-- CSS3 -->
  <symbol id="css3" viewBox="0 0 32 32">
    <g id="SVGRepo_bgCarrier" stroke-width="0"></g>
    <g id="SVGRepo_tracerCarrier" stroke-linecap="round" stroke-linejoin="round"></g>
    <g id="SVGRepo_iconCarrier">
      <title>CSS3</title>
      <polygon points="5.902 27.201 3.656 2 28.344 2 26.095 27.197 15.985 30 5.902 27.201" style="fill: #1572b6"></polygon>
      <polygon points="16 27.858 24.17 25.593 26.092 4.061 16 4.061 16 27.858" style="fill: #33a9dc"></polygon>
      <polygon points="16 13.191 20.09 13.191 20.372 10.026 16 10.026 16 6.935 16.011 6.935 23.75 6.935 23.676 7.764 22.917 16.282 16 16.282 16 13.191" style="fill: #fff"></polygon>
      <polygon points="16.019 21.218 16.005 21.222 12.563 20.292 12.343 17.827 10.67 17.827 9.24 17.827 9.673 22.68 16.004 24.438 16.019 24.434 16.019 21.218" style="fill: #ebebeb"></polygon>
      <polygon points="19.827 16.151 19.455 20.29 16.008 21.22 16.008 24.436 22.344 22.68 22.391 22.158 22.928 16.151 19.827 16.151" style="fill: #fff"></polygon>
      <polygon points="16.011 6.935 16.011 8.855 16.011 10.018 16.011 10.026 8.555 10.026 8.555 10.026 8.545 10.026 8.483 9.331 8.342 7.764 8.268 6.935 16.011 6.935" style="fill: #ebebeb"></polygon>
      <polygon points="16 13.191 16 15.111 16 16.274 16 16.282 12.611 16.282 12.611 16.282 12.601 16.282 12.539 15.587 12.399 14.02 12.325 13.191 16 13.191" style="fill: #ebebeb"></polygon>
    </g>
  </symbol>
<!-- JS -->
  <symbol id="js" viewBox="0 0 32 32" fill="#000">
    <g id="SVGRepo_bgCarrier" stroke-width="0"></g>
    <g id="SVGRepo_tracerCarrier" stroke-linecap="round" stroke-linejoin="round"></g>
    <g id="SVGRepo_iconCarrier">
      <title>file_type_js_official</title>
       <rect x="2" y="2" width="28" height="28" style="fill: #f5de19"></rect>
          <path d="M20.809,23.875a2.866,2.866,0,0,0,2.6,1.6c1.09,0,1.787-.545,1.787-1.3,0-.9-.716-1.222-1.916-1.747l-.658-.282c-1.9-.809-3.16-1.822-3.16-3.964,0-1.973,1.5-3.476,3.853-3.476a3.889,3.889,0,0,1,3.742,2.107L25,18.128A1.789,1.789,0,0,0,23.311,17a1.145,1.145,0,0,0-1.259,1.128c0,.789.489,1.109,1.618,1.6l.658.282c2.236.959,3.5,1.936,3.5,4.133,0,2.369-1.861,3.667-4.36,3.667a5.055,5.055,0,0,1-4.795-2.691Zm-9.295.228c.413.733.789,1.353,1.693,1.353.864,0,1.41-.338,1.41-1.653V14.856h2.631v8.982c0,2.724-1.6,3.964-3.929,3.964a4.085,4.085,0,0,1-3.947-2.4Z"></path>
    </g>
  </symbol>
<!-- Tailwind CSS -->
  <symbol id="tailwindcss" viewBox="0 0 54 33">
  <g clip-path="url(#prefix__clip0)"><path fill="#38bdf8" fill-rule="evenodd" d="M27 0c-7.2 0-11.7 3.6-13.5 10.8 2.7-3.6 5.85-4.95 9.45-4.05 2.054.513 3.522 2.004 5.147 3.653C30.744 13.09 33.808 16.2 40.5 16.2c7.2 0 11.7-3.6 13.5-10.8-2.7 3.6-5.85 4.95-9.45 4.05-2.054-.513-3.522-2.004-5.147-3.653C36.756 3.11 33.692 0 27 0zM13.5 16.2C6.3 16.2 1.8 19.8 0 27c2.7-3.6 5.85-4.95 9.45-4.05 2.054.514 3.522 2.004 5.147 3.653C17.244 29.29 20.308 32.4 27 32.4c7.2 0 11.7-3.6 13.5-10.8-2.7 3.6-5.85 4.95-9.45 4.05-2.054-.513-3.522-2.004-5.147-3.653C23.256 19.31 20.192 16.2 13.5 16.2z" clip-rule="evenodd"/></g><defs><clipPath id="prefix__clip0"><path fill="#fff" d="M0 0h54v32.4H0z"/></clipPath></defs></symbol>
<!-- Strapi -->
  <symbol id="strapi" viewBox="0 0 64 64">
  <path d="M0 22.1867C0 11.7278 0 6.49832 3.24916 3.24916C6.49832 0 11.7278 0 22.1867 0H41.8133C52.2722 0 57.5017 0 60.7508 3.24916C64 6.49832 64 11.7278 64 22.1867V41.8133C64 52.2722 64 57.5017 60.7508 60.7508C57.5017 64 52.2722 64 41.8133 64H22.1867C11.7278 64 6.49832 64 3.24916 60.7508C0 57.5017 0 52.2722 0 41.8133V22.1867Z" fill="#4945FF"/>
  <path fill-rule="evenodd" clip-rule="evenodd" d="M44.156 19.4131H22.6094V30.4004H33.596V41.3864H44.5827V19.8398C44.5827 19.6041 44.3917 19.4131 44.156 19.4131Z" fill="white"/>
  <rect x="33.1719" y="30.4004" width="0.426667" height="0.426667" fill="white"/>
  <path d="M22.6172 30.4004H33.1772C33.4128 30.4004 33.6039 30.5914 33.6039 30.8271V41.3871H23.0439C22.8082 41.3871 22.6172 41.196 22.6172 40.9604V30.4004Z" fill="#9593FF"/>
  <path d="M33.6016 41.3867H44.5882L33.9657 52.0092C33.8314 52.1436 33.6016 52.0484 33.6016 51.8584V41.3867Z" fill="#9593FF"/>
  <path d="M22.6151 30.3998H12.1434C11.9534 30.3998 11.8582 30.17 11.9926 30.0356L22.6151 19.4131V30.3998Z" fill="#9593FF"/>
  </symbol>
<!-- Redes sociales del Tec -->
<!-- Facebook -->
  <symbol id="facebook" viewBox="0 0 24 24"><title>Facebook</title><path d="M9.101 23.691v-7.98H6.627v-3.667h2.474v-1.58c0-4.085 1.848-5.978 5.858-5.978.401 0 .955.042 1.468.103a8.68 8.68 0 0 1 1.141.195v3.325a8.623 8.623 0 0 0-.653-.036 26.805 26.805 0 0 0-.733-.009c-.707 0-1.259.096-1.675.309a1.686 1.686 0 0 0-.679.622c-.258.42-.374.995-.374 1.752v1.297h3.919l-.386 2.103-.287 1.564h-3.246v8.245C19.396 23.238 24 18.179 24 12.044c0-6.627-5.373-12-12-12s-12 5.373-12 12c0 5.628 3.874 10.35 9.101 11.647Z"/></symbol>
<!-- Youtube -->
  <symbol id="youtube" viewBox="0 0 24 24" ><title>YouTube</title><path d="M23.498 6.186a3.016 3.016 0 0 0-2.122-2.136C19.505 3.545 12 3.545 12 3.545s-7.505 0-9.377.505A3.017 3.017 0 0 0 .502 6.186C0 8.07 0 12 0 12s0 3.93.502 5.814a3.016 3.016 0 0 0 2.122 2.136c1.871.505 9.376.505 9.376.505s7.505 0 9.377-.505a3.015 3.015 0 0 0 2.122-2.136C24 15.93 24 12 24 12s0-3.93-.502-5.814zM9.545 15.568V8.432L15.818 12l-6.273 3.568z"/></symbol>
<!-- Instagram -->
  <symbol id="instagram" viewBox="0 0 24 24"><title>Instagram</title><path d="M7.0301.084c-1.2768.0602-2.1487.264-2.911.5634-.7888.3075-1.4575.72-2.1228 1.3877-.6652.6677-1.075 1.3368-1.3802 2.127-.2954.7638-.4956 1.6365-.552 2.914-.0564 1.2775-.0689 1.6882-.0626 4.947.0062 3.2586.0206 3.6671.0825 4.9473.061 1.2765.264 2.1482.5635 2.9107.308.7889.72 1.4573 1.388 2.1228.6679.6655 1.3365 1.0743 2.1285 1.38.7632.295 1.6361.4961 2.9134.552 1.2773.056 1.6884.069 4.9462.0627 3.2578-.0062 3.668-.0207 4.9478-.0814 1.28-.0607 2.147-.2652 2.9098-.5633.7889-.3086 1.4578-.72 2.1228-1.3881.665-.6682 1.0745-1.3378 1.3795-2.1284.2957-.7632.4966-1.636.552-2.9124.056-1.2809.0692-1.6898.063-4.948-.0063-3.2583-.021-3.6668-.0817-4.9465-.0607-1.2797-.264-2.1487-.5633-2.9117-.3084-.7889-.72-1.4568-1.3876-2.1228C21.2982 1.33 20.628.9208 19.8378.6165 19.074.321 18.2017.1197 16.9244.0645 15.6471.0093 15.236-.005 11.977.0014 8.718.0076 8.31.0215 7.0301.0839m.1402 21.6932c-1.17-.0509-1.8053-.2453-2.2287-.408-.5606-.216-.96-.4771-1.3819-.895-.422-.4178-.6811-.8186-.9-1.378-.1644-.4234-.3624-1.058-.4171-2.228-.0595-1.2645-.072-1.6442-.079-4.848-.007-3.2037.0053-3.583.0607-4.848.05-1.169.2456-1.805.408-2.2282.216-.5613.4762-.96.895-1.3816.4188-.4217.8184-.6814 1.3783-.9003.423-.1651 1.0575-.3614 2.227-.4171 1.2655-.06 1.6447-.072 4.848-.079 3.2033-.007 3.5835.005 4.8495.0608 1.169.0508 1.8053.2445 2.228.408.5608.216.96.4754 1.3816.895.4217.4194.6816.8176.9005 1.3787.1653.4217.3617 1.056.4169 2.2263.0602 1.2655.0739 1.645.0796 4.848.0058 3.203-.0055 3.5834-.061 4.848-.051 1.17-.245 1.8055-.408 2.2294-.216.5604-.4763.96-.8954 1.3814-.419.4215-.8181.6811-1.3783.9-.4224.1649-1.0577.3617-2.2262.4174-1.2656.0595-1.6448.072-4.8493.079-3.2045.007-3.5825-.006-4.848-.0608M16.953 5.5864A1.44 1.44 0 1 0 18.39 4.144a1.44 1.44 0 0 0-1.437 1.4424M5.8385 12.012c.0067 3.4032 2.7706 6.1557 6.173 6.1493 3.4026-.0065 6.157-2.7701 6.1506-6.1733-.0065-3.4032-2.771-6.1565-6.174-6.1498-3.403.0067-6.156 2.771-6.1496 6.1738M8 12.0077a4 4 0 1 1 4.008 3.9921A3.9996 3.9996 0 0 1 8 12.0077"/></symbol>
<!-- TikTok -->
  <symbol id="tiktok" viewBox="0 0 347.67 398.67"><defs><style>.cls-1{fill:#fff;}</style></defs><g id="Layer_1-2"><path class="cls-1" d="M295.74,79.91c-21.48-14-36.97-36.41-41.81-62.52-1.04-5.64-1.62-11.45-1.62-17.39h-68.54l-.11,274.68c-1.15,30.76-26.47,55.45-57.5,55.45-9.65,0-18.73-2.41-26.73-6.62-18.34-9.65-30.89-28.87-30.89-50.99,0-31.77,25.85-57.62,57.61-57.62,5.93,0,11.62,.98,17,2.66v-69.97c-5.57-.76-11.23-1.23-17-1.23C56.59,146.36,0,202.95,0,272.52c0,42.68,21.32,80.45,53.86,103.29,20.49,14.39,45.42,22.86,72.3,22.86,69.56,0,126.15-56.59,126.15-126.15V133.23c26.88,19.29,59.82,30.66,95.36,30.66V95.35c-19.14,0-36.97-5.69-51.93-15.44Z"/></g></symbol>

</svg>
