<svg xmlns="http://www.w3.org/2000/svg" style="display:none">
<!-- Cabecera -->
<!-- Claro -->
  <symbol id="claro" viewBox="0 -960 960 960" fill="#0a00c1">
  <path d="M480-346.67q55.33 0 94.33-39t39-94.33q0-55.33-39-94.33t-94.33-39q-55.33 0-94.33 39t-39 94.33q0 55.33 39 94.33t94.33 39Zm0 66.67q-83 0-141.5-58.5T280-480q0-83 58.5-141.5T480-680q83 0 141.5 58.5T680-480q0 83-58.5 141.5T480-280ZM200-446.67H40v-66.66h160v66.66Zm720 0H760v-66.66h160v66.66ZM446.67-760v-160h66.66v160h-66.66Zm0 720v-160h66.66v160h-66.66ZM260-655.33l-100.33-97 47.66-49 96 100-43.33 46Zm493.33 496-97.66-100.34 45-45.66 99.66 97.66-47 48.34Zm-98.66-541.34 97.66-99.66 49 47L702-656l-47.33-44.67ZM159.33-207.33 259-305l46.33 45.67-97.66 99.66-48.34-47.66ZM480-480Z"/>
  </symbol>
<!-- Oscuro -->
  <symbol id="oscuro" viewBox="0 -960 960 960" fill="#75FBFD">
    <path d="M480-120q-150 0-255-105T120-480q0-150 105-255t255-105q10 0 20.5.67 10.5.66 24.17 2-37.67 31-59.17 77.83T444-660q0 90 63 153t153 63q53 0 99.67-20.5 46.66-20.5 77.66-56.17 1.34 12.34 2 21.84.67 9.5.67 18.83 0 150-105 255T480-120Zm0-66.67q102 0 179.33-61.16Q736.67-309 760.67-395.67q-23.34 9-49.11 13.67-25.78 4.67-51.56 4.67-117.46 0-200.06-82.61-82.61-82.6-82.61-200.06 0-22.67 4.34-47.67 4.33-25 14.66-55-91.33 28.67-150.5 107-59.16 78.34-59.16 175.67 0 122 85.66 207.67Q358-186.67 480-186.67Zm-6-288Z" />
  </symbol>
<!-- Tarjeta -->
<!-- Github -->
  <symbol id="github"><path fill-rule="evenodd" clip-rule="evenodd" d="M48.854 0C21.839 0 0 22 0 49.217c0 21.756 13.993 40.172 33.405 46.69 2.427.49 3.316-1.059 3.316-2.362 0-1.141-.08-5.052-.08-9.127-13.59 2.934-16.42-5.867-16.42-5.867-2.184-5.704-5.42-7.17-5.42-7.17-4.448-3.015.324-3.015.324-3.015 4.934.326 7.523 5.052 7.523 5.052 4.367 7.496 11.404 5.378 14.235 4.074.404-3.178 1.699-5.378 3.074-6.6-10.839-1.141-22.243-5.378-22.243-24.283 0-5.378 1.94-9.778 5.014-13.2-.485-1.222-2.184-6.275.486-13.038 0 0 4.125-1.304 13.426 5.052a46.97 46.97 0 0 1 12.214-1.63c4.125 0 8.33.571 12.213 1.63 9.302-6.356 13.427-5.052 13.427-5.052 2.67 6.763.97 11.816.485 13.038 3.155 3.422 5.015 7.822 5.015 13.2 0 18.905-11.404 23.06-22.324 24.283 1.78 1.548 3.316 4.481 3.316 9.126 0 6.6-.08 11.897-.08 13.526 0 1.304.89 2.853 3.316 2.364 19.412-6.52 33.405-24.935 33.405-46.691C97.707 22 75.788 0 48.854 0z" fill="#24292f"/>
  </symbol>

  <symbol id="pdf" viewBox="0 -960 960 960">
    <path d="M360-460h40v-80h40q17 0 28.5-11.5T480-580v-40q0-17-11.5-28.5T440-660h-80v200Zm40-120v-40h40v40h-40Zm120 120h80q17 0 28.5-11.5T640-500v-120q0-17-11.5-28.5T600-660h-80v200Zm40-40v-120h40v120h-40Zm120 40h40v-80h40v-40h-40v-40h40v-40h-80v200ZM320-240q-33 0-56.5-23.5T240-320v-480q0-33 23.5-56.5T320-880h480q33 0 56.5 23.5T880-800v480q0 33-23.5 56.5T800-240H320Zm0-80h480v-480H320v480ZM160-80q-33 0-56.5-23.5T80-160v-560h80v560h560v80H160Zm160-720v480-480Z"/>
  </symbol>
  <symbol id="correo" viewBox="0 -960 960 960">
    <path d="M160-160q-33 0-56.5-23.5T80-240v-480q0-33 23.5-56.5T160-800h640q33 0 56.5 23.5T880-720v480q0 33-23.5 56.5T800-160H160Zm320-280L160-640v400h640v-400L480-440Zm0-80 320-200H160l320 200ZM160-640v-80 480-400Z"/>
  </symbol>
<!-- Habilidades y Conocimientos -->
<!-- HTML5 -->
  <symbol id="html5" viewBox="0 0 512 512">
    <title>HTML5</title>
    <path fill="#E34F26" d="M71,460 L30,0 481,0 440,460 255,512"/>
    <path fill="#EF652A" d="M256,472 L405,431 440,37 256,37"/>
    <path fill="#EBEBEB" d="M256,208 L181,208 176,150 256,150 256,94 255,94 114,94 115,109 129,265 256,265zM256,355 L255,355 192,338 188,293 158,293 132,293 139,382 255,414 256,414z"/>
    <path fill="#FFF" d="M255,208 L255,265 325,265 318,338 255,355 255,414 371,382 372,372 385,223 387,208 371,208zM255,94 L255,129 255,150 255,150 392,150 392,150 392,150 393,138 396,109 397,94z"/>
  </symbol>
<!-- CSS3 -->
  <symbol id="css3" viewBox="0 0 32 32">
    <g id="SVGRepo_bgCarrier" stroke-width="0"></g>
    <g id="SVGRepo_tracerCarrier" stroke-linecap="round" stroke-linejoin="round"></g>
    <g id="SVGRepo_iconCarrier">
      <title>CSS3</title>
      <polygon points="5.902 27.201 3.656 2 28.344 2 26.095 27.197 15.985 30 5.902 27.201" style="fill: #1572b6"></polygon>
      <polygon points="16 27.858 24.17 25.593 26.092 4.061 16 4.061 16 27.858" style="fill: #33a9dc"></polygon>
      <polygon points="16 13.191 20.09 13.191 20.372 10.026 16 10.026 16 6.935 16.011 6.935 23.75 6.935 23.676 7.764 22.917 16.282 16 16.282 16 13.191" style="fill: #fff"></polygon>
      <polygon points="16.019 21.218 16.005 21.222 12.563 20.292 12.343 17.827 10.67 17.827 9.24 17.827 9.673 22.68 16.004 24.438 16.019 24.434 16.019 21.218" style="fill: #ebebeb"></polygon>
      <polygon points="19.827 16.151 19.455 20.29 16.008 21.22 16.008 24.436 22.344 22.68 22.391 22.158 22.928 16.151 19.827 16.151" style="fill: #fff"></polygon>
      <polygon points="16.011 6.935 16.011 8.855 16.011 10.018 16.011 10.026 8.555 10.026 8.555 10.026 8.545 10.026 8.483 9.331 8.342 7.764 8.268 6.935 16.011 6.935" style="fill: #ebebeb"></polygon>
      <polygon points="16 13.191 16 15.111 16 16.274 16 16.282 12.611 16.282 12.611 16.282 12.601 16.282 12.539 15.587 12.399 14.02 12.325 13.191 16 13.191" style="fill: #ebebeb"></polygon>
    </g>
  </symbol>
<!-- JS -->
  <symbol id="js" viewBox="0 0 32 32" fill="#000">
    <g id="SVGRepo_bgCarrier" stroke-width="0"></g>
    <g id="SVGRepo_tracerCarrier" stroke-linecap="round" stroke-linejoin="round"></g>
    <g id="SVGRepo_iconCarrier">
      <title>file_type_js_official</title>
       <rect x="2" y="2" width="28" height="28" style="fill: #f5de19"></rect>
          <path d="M20.809,23.875a2.866,2.866,0,0,0,2.6,1.6c1.09,0,1.787-.545,1.787-1.3,0-.9-.716-1.222-1.916-1.747l-.658-.282c-1.9-.809-3.16-1.822-3.16-3.964,0-1.973,1.5-3.476,3.853-3.476a3.889,3.889,0,0,1,3.742,2.107L25,18.128A1.789,1.789,0,0,0,23.311,17a1.145,1.145,0,0,0-1.259,1.128c0,.789.489,1.109,1.618,1.6l.658.282c2.236.959,3.5,1.936,3.5,4.133,0,2.369-1.861,3.667-4.36,3.667a5.055,5.055,0,0,1-4.795-2.691Zm-9.295.228c.413.733.789,1.353,1.693,1.353.864,0,1.41-.338,1.41-1.653V14.856h2.631v8.982c0,2.724-1.6,3.964-3.929,3.964a4.085,4.085,0,0,1-3.947-2.4Z"></path>
    </g>
  </symbol>
<!-- Tailwind CSS -->
  <symbol id="tailwindcss" viewBox="0 0 54 33">
  <g clip-path="url(#prefix__clip0)"><path fill="#38bdf8" fill-rule="evenodd" d="M27 0c-7.2 0-11.7 3.6-13.5 10.8 2.7-3.6 5.85-4.95 9.45-4.05 2.054.513 3.522 2.004 5.147 3.653C30.744 13.09 33.808 16.2 40.5 16.2c7.2 0 11.7-3.6 13.5-10.8-2.7 3.6-5.85 4.95-9.45 4.05-2.054-.513-3.522-2.004-5.147-3.653C36.756 3.11 33.692 0 27 0zM13.5 16.2C6.3 16.2 1.8 19.8 0 27c2.7-3.6 5.85-4.95 9.45-4.05 2.054.514 3.522 2.004 5.147 3.653C17.244 29.29 20.308 32.4 27 32.4c7.2 0 11.7-3.6 13.5-10.8-2.7 3.6-5.85 4.95-9.45 4.05-2.054-.513-3.522-2.004-5.147-3.653C23.256 19.31 20.192 16.2 13.5 16.2z" clip-rule="evenodd"/></g><defs><clipPath id="prefix__clip0"><path fill="#fff" d="M0 0h54v32.4H0z"/></clipPath></defs></symbol>
<!-- Strapi -->
  <symbol id="strapi" viewBox="0 0 64 64">
  <path d="M0 22.1867C0 11.7278 0 6.49832 3.24916 3.24916C6.49832 0 11.7278 0 22.1867 0H41.8133C52.2722 0 57.5017 0 60.7508 3.24916C64 6.49832 64 11.7278 64 22.1867V41.8133C64 52.2722 64 57.5017 60.7508 60.7508C57.5017 64 52.2722 64 41.8133 64H22.1867C11.7278 64 6.49832 64 3.24916 60.7508C0 57.5017 0 52.2722 0 41.8133V22.1867Z" fill="#4945FF"/>
  <path fill-rule="evenodd" clip-rule="evenodd" d="M44.156 19.4131H22.6094V30.4004H33.596V41.3864H44.5827V19.8398C44.5827 19.6041 44.3917 19.4131 44.156 19.4131Z" fill="white"/>
  <rect x="33.1719" y="30.4004" width="0.426667" height="0.426667" fill="white"/>
  <path d="M22.6172 30.4004H33.1772C33.4128 30.4004 33.6039 30.5914 33.6039 30.8271V41.3871H23.0439C22.8082 41.3871 22.6172 41.196 22.6172 40.9604V30.4004Z" fill="#9593FF"/>
  <path d="M33.6016 41.3867H44.5882L33.9657 52.0092C33.8314 52.1436 33.6016 52.0484 33.6016 51.8584V41.3867Z" fill="#9593FF"/>
  <path d="M22.6151 30.3998H12.1434C11.9534 30.3998 11.8582 30.17 11.9926 30.0356L22.6151 19.4131V30.3998Z" fill="#9593FF"/>
  </symbol>
</svg>
